<svg id="Layer_1" data-name="Layer 1" xmlns="http://www.w3.org/2000/svg" viewBox="0 0 1027 483"><defs><style>.cls-1{fill:#f5b67a;}.cls-1,.cls-2,.cls-22,.cls-23,.cls-3{stroke:#000;}.cls-10,.cls-13,.cls-14,.cls-16,.cls-17,.cls-2,.cls-22,.cls-3,.cls-5,.cls-9{fill:none;}.cls-10,.cls-14,.cls-17,.cls-22,.cls-3{stroke-miterlimit:10;}.cls-11,.cls-18,.cls-4,.cls-6{isolation:isolate;font-size:12px;}.cls-4{font-family:HelveticaNeue, Helvetica Neue;}.cls-6{font-family:HelveticaNeue-Bold, Helvetica Neue;}.cls-18,.cls-6{font-weight:700;}.cls-7{letter-spacing:-0.02em;}.cls-8{fill:#ffdc8c;}.cls-10,.cls-8,.cls-9{stroke:#ddab38;}.cls-11{font-family:HelveticaNeue-Italic, Helvetica Neue;}.cls-11,.cls-18{font-style:italic;}.cls-12{fill:#91ead2;}.cls-12,.cls-13,.cls-14{stroke:#64b19c;}.cls-15{fill:#efb9aa;}.cls-15,.cls-16,.cls-17{stroke:#d77d63;}.cls-18{font-family:HelveticaNeue-BoldItalic, Helvetica Neue;}.cls-19{letter-spacing:-0.09em;}.cls-20{letter-spacing:-0.02em;}.cls-21{letter-spacing:0em;}.cls-22{stroke-dasharray:5;}.cls-23{fill:#fff;}</style></defs><title>ERD</title><rect class="cls-1" x="0.5" y="79" width="130" height="118" rx="10"/><rect class="cls-2" x="0.5" y="79" width="130" height="118" rx="10"/><path class="cls-3" d="M.5,105.51h130" transform="translate(0 -13)"/><text class="cls-4" transform="translate(52.45 89.5)">User</text><rect class="cls-5" x="0.5" y="113.51" width="130" height="16"/><text class="cls-4" transform="translate(7 126.01)">DocName : string</text><rect class="cls-5" x="0.5" y="97.51" width="130" height="16"/><text class="cls-6" transform="translate(7 110.01)">DocId : string</text><rect class="cls-5" x="0.5" y="129.51" width="130" height="16"/><text class="cls-4" transform="translate(7 142.01)">DocHospital : string</text><rect class="cls-5" x="0.5" y="145.51" width="130" height="16"/><text class="cls-4" transform="translate(7 158.01)">Email : string</text><rect class="cls-5" x="0.5" y="161.51" width="130" height="16"/><text class="cls-4" transform="translate(7 174.01)">passwo<tspan class="cls-7" x="41.54" y="0">r</tspan><tspan x="45.32" y="0">d : string</tspan></text><rect class="cls-8" x="340.5" y="63.5" width="133" height="149" rx="10"/><rect class="cls-9" x="340.5" y="63.5" width="133" height="149" rx="10"/><path class="cls-10" d="M340.5,90h133" transform="translate(0 -13)"/><text class="cls-4" transform="translate(387.72 74)">Patient</text><rect class="cls-5" x="340.5" y="82" width="133" height="16"/><text class="cls-6" transform="translate(347 94.5)">PatientId : string</text><rect class="cls-5" x="340.5" y="114" width="133" height="16"/><text class="cls-11" transform="translate(347 126.5)">DocId : string</text><rect class="cls-5" x="340.5" y="130" width="133" height="16"/><text class="cls-4" transform="translate(347 142.5)">PatientDate : string</text><rect class="cls-5" x="340.5" y="98" width="133" height="16"/><text class="cls-4" transform="translate(347 110.5)">PatientName:string</text><rect class="cls-12" x="130.5" y="305.5" width="172" height="123" rx="10"/><rect class="cls-13" x="130.5" y="305.5" width="172" height="123" rx="10"/><path class="cls-14" d="M130.5,332h172" transform="translate(0 -13)"/><text class="cls-4" transform="translate(165.77 316)">PatientDiagnostics</text><rect class="cls-12" x="130.5" y="324.01" width="172" height="16"/><text class="cls-6" transform="translate(137 336.51)">DiagnosticsId :int</text><rect class="cls-5" x="130.5" y="340.01" width="172" height="16"/><text class="cls-11" transform="translate(137 352.51)">PatientId : string</text><rect class="cls-5" x="130.5" y="356.01" width="172" height="16"/><text class="cls-11" transform="translate(137 368.51)">DocId : string</text><rect class="cls-5" x="130.5" y="372.01" width="172" height="16"/><text class="cls-4" transform="translate(137 384.51)">DiagnosticsDate : string</text><rect class="cls-5" x="130.5" y="388.01" width="172" height="16"/><text class="cls-4" transform="translate(137 400.51)">DiagnosticsFor : int</text><rect class="cls-15" x="604.5" y="123.5" width="189" height="242" rx="10"/><rect class="cls-16" x="604.5" y="123.5" width="189" height="242" rx="10"/><path class="cls-17" d="M604.5,150h189" transform="translate(0 -13)"/><text class="cls-4" transform="translate(686.39 134)">CHF</text><rect class="cls-5" x="604.5" y="158" width="189" height="16"/><text class="cls-11" transform="translate(611 170.5)">PatientId : string</text><rect class="cls-5" x="604.5" y="174" width="189" height="16"/><text class="cls-11" transform="translate(611 186.5)">DocId : string</text><rect class="cls-5" x="604.5" y="142" width="189" height="16"/><text class="cls-18" transform="translate(611 154.5)">DiagnosticsId : int</text><rect class="cls-5" x="604.5" y="190" width="189" height="16"/><text class="cls-4" transform="translate(611 202.5)">Pulse : string</text><rect class="cls-5" x="604.5" y="206" width="189" height="16"/><text class="cls-4" transform="translate(611 218.5)">NYHA : string</text><rect class="cls-5" x="604.5" y="222" width="189" height="16"/><text class="cls-4" transform="translate(611 234.5)">Killip : string</text><rect class="cls-5" x="604.5" y="238" width="189" height="16"/><text class="cls-4" transform="translate(611 250.5)">BNP : string</text><rect class="cls-5" x="604.5" y="254" width="189" height="16"/><text class="cls-4" transform="translate(611 266.5)">Cystanin : string</text><rect class="cls-5" x="604.5" y="270" width="189" height="16"/><text class="cls-4" transform="translate(611 282.5)">Potassium : string</text><rect class="cls-5" x="604.5" y="286" width="189" height="16"/><text class="cls-4" transform="translate(611 298.5)">DiagnosticsDate : string</text><rect class="cls-5" x="604.5" y="302" width="189" height="16"/><text class="cls-4" transform="translate(611 314.5)">Result : string</text><rect class="cls-15" x="837.5" y="123.5" width="189" height="255" rx="10"/><rect class="cls-16" x="837.5" y="123.5" width="189" height="255" rx="10"/><path class="cls-17" d="M837.5,150h189" transform="translate(0 -13)"/><text class="cls-4" transform="translate(923.72 134)">HF</text><rect class="cls-5" x="837.5" y="158" width="189" height="16"/><text class="cls-11" transform="translate(844 170.5)">PatientId : string</text><rect class="cls-5" x="837.5" y="174" width="189" height="16"/><text class="cls-11" transform="translate(844 186.5)">DocId: string</text><rect class="cls-5" x="837.5" y="142" width="189" height="16"/><text class="cls-18" transform="translate(844 154.5)">DiagnosticId : int</text><rect class="cls-5" x="837.5" y="190" width="189" height="16"/><text class="cls-4" transform="translate(844 202.5)">Pulse : string</text><rect class="cls-5" x="837.5" y="206" width="189" height="16"/><text class="cls-4" transform="translate(844 218.5)">SystolicBP : string</text><rect class="cls-5" x="837.5" y="222" width="189" height="16"/><text class="cls-4" transform="translate(844 234.5)"><tspan class="cls-19">L</tspan><tspan x="5.57" y="0">VEDD : string</tspan></text><rect class="cls-5" x="837.5" y="238" width="189" height="16"/><text class="cls-4" transform="translate(844 250.5)">BNP : string</text><rect class="cls-5" x="837.5" y="254" width="189" height="16"/><text class="cls-4" transform="translate(844 266.5)">C<tspan class="cls-20" x="8.66" y="0">r</tspan><tspan x="12.44" y="0">eatnineKinase : string</tspan></text><rect class="cls-5" x="837.5" y="270" width="189" height="16"/><text class="cls-4" transform="translate(844 282.5)">Cholest<tspan class="cls-20" x="41.11" y="0">r</tspan><tspan class="cls-21" x="44.89" y="0">ol : string</tspan></text><rect class="cls-5" x="837.5" y="286" width="189" height="16"/><text class="cls-4" transform="translate(844 298.5)">CEM : string</text><rect class="cls-5" x="837.5" y="302" width="189" height="16"/><text class="cls-4" transform="translate(844 314.5)">Potassium : string</text><rect class="cls-5" x="837.5" y="318" width="189" height="16"/><text class="cls-4" transform="translate(844 330.5)">DiagnosticsDate : string</text><rect class="cls-5" x="837.5" y="334" width="189" height="16"/><text class="cls-4" transform="translate(844 346.5)">Result : string</text><path class="cls-22" d="M302.5,380h141q10,0,10-10V267.5q0-10,10-10h141" transform="translate(0 -13)"/><path class="cls-3" d="M309,373.5v13" transform="translate(0 -13)"/><path class="cls-3" d="M598,264V251" transform="translate(0 -13)"/><path class="cls-22" d="M340.5,177.5h-114q-10,0-10,10v131" transform="translate(0 -13)"/><path class="cls-3" d="M334,184V171" transform="translate(0 -13)"/><circle class="cls-23" cx="216.5" cy="286" r="5.5"/><path class="cls-3" d="M223,318.5l-6.5-13-6.5,13" transform="translate(0 -13)"/><path class="cls-22" d="M942.5,391.5v94q0,10-10,10h-642q-10,0-10-10v-44" transform="translate(0 -13)"/><path class="cls-3" d="M949,398H936" transform="translate(0 -13)"/><path class="cls-3" d="M287,448H274" transform="translate(0 -13)"/><path class="cls-22" d="M65.5,210v44.25q0,10,10,10h87.83q10,0,10,10v44.08" transform="translate(0 -13)"/><path class="cls-3" d="M72,216.5H59" transform="translate(0 -13)"/><circle class="cls-23" cx="173.33" cy="285.83" r="5.5"/><path class="cls-3" d="M179.83,318.33l-6.5-13-6.5,13" transform="translate(0 -13)"/><path class="cls-22" d="M28.5,92V23.5q0-10,10-10H921.67q10,0,10,10V136.67" transform="translate(0 -13)"/><path class="cls-3" d="M22,85.5H35" transform="translate(0 -13)"/><circle class="cls-23" cx="931.67" cy="104.17" r="5.5"/><path class="cls-3" d="M938.17,136.67l-6.5-13-6.5,13" transform="translate(0 -13)"/><path class="cls-22" d="M65.5,92V48.5q0-10,10-10H689.17q10,0,10,10v88.17" transform="translate(0 -13)"/><path class="cls-3" d="M59,85.5H72" transform="translate(0 -13)"/><circle class="cls-23" cx="699.17" cy="104.17" r="5.5"/><path class="cls-3" d="M705.67,136.67l-6.5-13-6.5,13" transform="translate(0 -13)"/><path class="cls-22" d="M473.5,151h20a119,119,0,0,1,19.86,1.67l51.28,8.66A119,119,0,0,0,584.5,163h20" transform="translate(0 -13)"/><path class="cls-3" d="M480,144.5v13" transform="translate(0 -13)"/><circle class="cls-23" cx="585" cy="150" r="5.5"/><path class="cls-3" d="M604.5,156.5l-13,6.5,13,6.5" transform="translate(0 -13)"/><path class="cls-22" d="M473.5,120.5h69q10,0,10-10v-10q0-10,10-10h324q10,0,10,10v36" transform="translate(0 -13)"/><path class="cls-3" d="M480,114v13" transform="translate(0 -13)"/><circle class="cls-23" cx="896.5" cy="104" r="5.5"/><path class="cls-3" d="M903,136.5l-6.5-13-6.5,13" transform="translate(0 -13)"/><path class="cls-22" d="M130.5,151h20a94.59,94.59,0,0,0,19.78-2.09l130.44-27.82A94.59,94.59,0,0,1,320.5,119h20" transform="translate(0 -13)"/><path class="cls-3" d="M137,144.5v13" transform="translate(0 -13)"/><circle class="cls-23" cx="321" cy="106" r="5.5"/><path class="cls-3" d="M340.5,112.5l-13,6.5,13,6.5" transform="translate(0 -13)"/><path class="cls-22" d="M302.5,380h141q10,0,10-10V267.5q0-10,10-10h141" transform="translate(0 -13)"/><path class="cls-3" d="M309,373.5v13" transform="translate(0 -13)"/><path class="cls-3" d="M598,264V251" transform="translate(0 -13)"/><path class="cls-22" d="M340.5,177.5h-114q-10,0-10,10v131" transform="translate(0 -13)"/><path class="cls-3" d="M334,184V171" transform="translate(0 -13)"/><circle class="cls-23" cx="216.5" cy="286" r="5.5"/><path class="cls-3" d="M223,318.5l-6.5-13-6.5,13" transform="translate(0 -13)"/><path class="cls-22" d="M942.5,391.5v94q0,10-10,10h-642q-10,0-10-10v-44" transform="translate(0 -13)"/><path class="cls-3" d="M949,398H936" transform="translate(0 -13)"/><path class="cls-3" d="M287,448H274" transform="translate(0 -13)"/><path class="cls-22" d="M65.5,210v44.25q0,10,10,10h87.83q10,0,10,10v44.08" transform="translate(0 -13)"/><path class="cls-3" d="M72,216.5H59" transform="translate(0 -13)"/><circle class="cls-23" cx="173.33" cy="285.83" r="5.5"/><path class="cls-3" d="M179.83,318.33l-6.5-13-6.5,13" transform="translate(0 -13)"/><path class="cls-22" d="M28.5,92V23.5q0-10,10-10H921.67q10,0,10,10V136.67" transform="translate(0 -13)"/><path class="cls-3" d="M22,85.5H35" transform="translate(0 -13)"/><circle class="cls-23" cx="931.67" cy="104.17" r="5.5"/><path class="cls-3" d="M938.17,136.67l-6.5-13-6.5,13" transform="translate(0 -13)"/><path class="cls-22" d="M65.5,92V48.5q0-10,10-10H689.17q10,0,10,10v88.17" transform="translate(0 -13)"/><path class="cls-3" d="M59,85.5H72" transform="translate(0 -13)"/><circle class="cls-23" cx="699.17" cy="104.17" r="5.5"/><path class="cls-3" d="M705.67,136.67l-6.5-13-6.5,13" transform="translate(0 -13)"/><path class="cls-22" d="M473.5,151h20a119,119,0,0,1,19.86,1.67l51.28,8.66A119,119,0,0,0,584.5,163h20" transform="translate(0 -13)"/><path class="cls-3" d="M480,144.5v13" transform="translate(0 -13)"/><circle class="cls-23" cx="585" cy="150" r="5.5"/><path class="cls-3" d="M604.5,156.5l-13,6.5,13,6.5" transform="translate(0 -13)"/><path class="cls-22" d="M473.5,120.5h69q10,0,10-10v-10q0-10,10-10h324q10,0,10,10v36" transform="translate(0 -13)"/><path class="cls-3" d="M480,114v13" transform="translate(0 -13)"/><circle class="cls-23" cx="896.5" cy="104" r="5.5"/><path class="cls-3" d="M903,136.5l-6.5-13-6.5,13" transform="translate(0 -13)"/><path class="cls-22" d="M130.5,151h20a94.59,94.59,0,0,0,19.78-2.09l130.44-27.82A94.59,94.59,0,0,1,320.5,119h20" transform="translate(0 -13)"/><path class="cls-3" d="M137,144.5v13" transform="translate(0 -13)"/><circle class="cls-23" cx="321" cy="106" r="5.5"/><path class="cls-3" d="M340.5,112.5l-13,6.5,13,6.5" transform="translate(0 -13)"/></svg>