<svg height="512" viewBox="0 0 59 61" width="512" xmlns="http://www.w3.org/2000/svg"><g id="048---Microscope" fill="none"><g id="Icons" transform="translate(1 1)"><circle id="Oval" cx="31" cy="5" fill="#f44335" r="4"/><circle id="Oval" cx="53.5" cy="5.5" fill="#f44335" r="3.5"/><path id="Shape" d="m29.71 27.46-2.83 2.82c-.2211724.2189634-.531684.3224672-.84.28-.47 0-.43-.13-3.4-3.1-1.51 1.54-1.48 1.54-1.79 1.64-.3502589.1132301-.7344056.0248763-1-.23l-1.42-1.41c-.1893127-.1877666-.2957983-.4433625-.2957983-.71s.1064856-.5222334.2957983-.71l-2.43-2.39c-.99111 1.0938402-2.504075 1.5529529-3.9359272 1.1943661-1.4318523-.3585867-2.54985216-1.4765866-2.90843891-2.9084389-.35858675-1.4318522.10052593-2.9448172 1.19436611-3.9359272l-6.81-6.81c-.38772359-.3900375-.38772359-1.0199625 0-1.41l.71-.71-3.53-3.53c-.18931265-.1877666-.29579832-.44336246-.29579832-.71s.10648567-.5222334.29579832-.71l2.82-2.83c.18907174-.20195032.45335572-.31655285.73-.31655285s.54092826.11460253.73.31655285l3.49 3.54.71-.71c.1877666-.18931265.44336246-.29579832.71-.29579832.2666375 0 .5222334.10648567.71.29579832l14.84 14.88c.1877666-.1893127.4433625-.2957983.71-.2957983s.5222334.1064856.71.2957983l1.41 1.41c.1893127.1877666.2957983.4433625.2957983.71s-.1064856.5222334-.2957983.71l-1.41 1.41 2.83 2.76c.2019503.1890717.3165529.4533557.3165529.73s-.1146026.5409283-.3165529.73z" fill="#7f8e94"/><path id="Shape" d="m38 56v3h-36v-3c0-2.7614237 2.23857625-5 5-5h26c2.7614237 0 5 2.2385763 5 5z" fill="#0377bc"/><path id="Shape" d="m35 56v3h-33v-3c0-2.7614237 2.23857625-5 5-5h23c2.7614237 0 5 2.2385763 5 5z" fill="#02a9f4"/><path id="Shape" d="m35.49 41c-2.978403 6.5883584-9.7982466 10.5719494-17 9.93-14.91-1.29-21.01-20.13-9.49-29.93.02477811 1.8693678 1.3411235 3.4722363 3.17 3.86-3.47667071 3.024077-4.91469514 7.771826-3.70028105 12.2167646 1.21441408 4.4449386 4.86675835 7.8019338 9.39810195 8.6381188 4.5313437.836185 9.1412917-.99614 11.8621791-4.7148834z" fill="#3f51b5"/><path id="Shape" d="m17 21c.0020295 2.0106796-1.4888412 3.7103737-3.4826323 3.970438s-3.87076811-1.0003377-4.38456575-2.9442638c-.51379763-1.943926.49528895-3.9671412 2.35719805-4.7261742 1.2327465-.5025461 2.6347278-.3588689 3.7399168.3832725s1.7687395 1.9854819 1.7700832 3.3167275z" fill="#607d8b"/><path id="Shape" d="m25.46 19-7.07 7-2.39-2.35c1.4319504-1.5803745 1.3722227-4.0062434-.135767-5.514233-1.5079896-1.5079897-3.9338585-1.5677174-5.514233-.135767l-6.81-6.81c-.38772359-.3900375-.38772359-1.0199625 0-1.41l5.66-5.66c.1877666-.18931265.44336246-.29579832.71-.29579832.2666375 0 .5222334.10648567.71.29579832z" fill="#02a9f4"/><path id="Shape" d="m28.29 21.8c-7.59 7.59-7.15 7.27-7.59 7.34-.3230159.0618272-.6557816-.0391242-.89-.27l-1.42-1.41c-.1893127-.1877666-.2957983-.4433625-.2957983-.71s.1064856-.5222334.2957983-.71l7.07-7.04c.1877666-.1893127.4433625-.2957983.71-.2957983s.5222334.1064856.71.2957983l1.41 1.41c.3746537.3875966.3746537 1.0024034 0 1.39z" fill="#3f51b5"/><path id="Shape" d="m50 16c-.0000274 1.853011-.6433107 3.648549-1.82 5.08l-.76-1c-.6544574-.8974627-1.9125373-1.0944573-2.81-.4399999-.8974626.6544574-1.0944574 1.9125372-.44 2.8099999l.76 1c-3.2662513 1.2855909-6.9890264.29185-9.18008-2.4504895-2.1910536-2.7423394-2.3385351-6.5926413-.3636782-9.4945513 1.9748569-2.90191007 5.6107072-4.17751497 8.9657301-3.14554463s5.6454537 4.13043803 5.6480281 7.64058543z" fill="#f57c00"/><path id="Shape" d="m46.29 19.27c-.7415499-.198011-1.5310046.0458185-2.0317347.6275177-.5007302.5816992-.6243959 1.3986438-.3182653 2.1024823l-2 1.46c-.459909.1819279-.935124.3224844-1.42.42-3.7764028-.7159313-6.5098993-4.016333-6.5098993-7.86s2.7334965-7.14406865 6.5098993-7.86c2.3919665.46801031 4.4401091 2.0009248 5.5634706 4.1639311s1.1993935 4.7201403.2065294 6.9460689z" fill="#ff9801"/><path id="Shape" d="m50.38 24.11c-1.3661369.2751205-2.5753725 1.0621969-3.38 2.2l-2.83-3.91c-.4507705-.6088692-.5188321-1.4201668-.1758073-2.0956294.3430249-.6754626 1.03825-1.0991349 1.7958073-1.0943706.6436271-.0048761 1.2502676.300305 1.63.82 1.03 1.39.34.47 2.96 4.08z" fill="#ff5722"/><path id="Shape" d="m41 39c0 1.1045695-.8954305 2-2 2h-11c-1.1045695 0-2-.8954305-2-2s.8954305-2 2-2h11c1.1045695 0 2 .8954305 2 2z" fill="#0377bc"/><path id="Shape" d="m38 39c0 1.1045695-.8954305 2-2 2h-8c-1.1045695 0-2-.8954305-2-2s.8954305-2 2-2h8c1.1045695 0 2 .8954305 2 2z" fill="#02a9f4"/><circle id="Oval" cx="33.5" cy="34.5" fill="#ff9801" r="2.5"/><path id="Shape" d="m57 29.5c.0007764 2.841824-2.1635634 5.2163042-4.993302 5.4781126-2.8297387.2618083-5.3929856-1.675274-5.9136123-4.4690013s1.1728198-5.5240682 3.9069143-6.2991113c1.6582406-.4700671 3.4409431-.1356022 4.8160256.9035673s2.1835035 2.6628536 2.1839744 4.3864327z" fill="#c81e1e"/><ellipse id="Oval" cx="50" cy="29.5" fill="#f44335" rx="4" ry="5.29"/></g><g id="Layer_2" fill="#000"><path id="Shape" d="m41.68 12.05c-.15.05-3.68 1.27-3.68 4.95 0 .5522847.4477153 1 1 1s1-.4477153 1-1c.1025034-1.3744722 1.0155003-2.5550716 2.32-3 .5246705-.1767311.8067311-.7453295.63-1.27s-.7453295-.8067311-1.27-.63z"/><path id="Shape" d="m59 6.5c.0020224-1.87277612-1.1585593-3.55011531-2.9118433-4.20836275s-3.7309857-.15913552-4.9619577 1.25224762c-1.230972 1.41138315-1.4566436 3.43857061-.566199 5.08611513l-1.76 1.5c-3.1911349-2.69420693-7.8164506-2.83913625-11.17-.35l-1.36-1.21c1.3623237-2.17931753.8505806-5.03648273-1.1834575-6.60748236-2.0340381-1.57099962-4.927787-1.34408345-6.692086.52476651-1.7642989 1.86884996-1.8244306 4.7708593-.1390607 6.71118893 1.6853699 1.94032962 4.5672354 2.28692072 6.6646042.80152692l1.24 1.11c-5.75 6.76.77 17 9.39 14.47l1.27 1.74c-1.4383066 2.6198261-.9015421 5.8831731 1.3001195 7.904287 2.2016615 2.0211139 5.4989148 2.2773754 7.986413.6207017 2.4874981-1.6566738 3.5220242-4.7979005 2.5057683-7.6084945s-3.8205106-4.5637925-6.7923008-4.2464942l-1.41-1.94c2.1822245-3.1886469 2.0856361-7.41439-.24-10.5l1.69-1.45c1.363027.9875451 3.1632264 1.1318623 4.666172.3740746 1.5029457-.75778775 2.4573433-2.29097745 2.473828-3.9740746zm-4.5-2.5c1.028535-.01912916 1.9637905.59373413 2.3568262 1.54440399.3930357.95066987.1636061 2.04504924-.5781584 2.75781551-.7417644.71276626-1.8444186.89839483-2.7786678.4677805l1.18-1c.4197364-.35898509.4689851-.99026359.11-1.41s-.9902636-.46898509-1.41-.11l-1.21 1c-.2452486-.75069103-.1183014-1.57330609.3418439-2.2151396.4601453-.64183352 1.1984676-1.02613965 1.9881561-1.0348604zm-25.5 2c-.0047299-1.22450498.7352224-2.32898288 1.8694645-2.79042596s2.4350896-.18722263 3.286547.69280867c.8514574.88003131 1.0826058 2.18921859.5839885 3.30761729l-1.08-1c-.416915-.33580195-1.024335-.28371326-1.3779907.11816821s-.3280933 1.01099462.0579907 1.38183179l1 .91c-.9198179.4594964-2.0108792.41591965-2.8911213-.11547076-.8802422-.53139042-1.427025-1.47655822-1.4488787-2.50452924zm7 11c-.0048423-2.9248122 1.8092831-5.5443198 4.5489397-6.5684445 2.7396567-1.02412464 5.8272499-.2369528 7.7421744 1.973842 1.9149244 2.2107949 2.2534617 5.3791169.8488859 7.9446025-1.0084765-1.2310847-2.8027602-1.4604877-4.0885283-.5227272-1.285768.9377606-1.6155575 2.7163327-.7514717 4.0527272-2.0482171.3871176-4.1624027-.1587246-5.7672252-1.4889871-1.6048224-1.3302624-2.5333029-3.3065339-2.5327748-5.3910129zm21 13.5c0 2.4852814-2.0147186 4.5-4.5 4.5s-4.5-2.0147186-4.5-4.5 2.0147186-4.5 4.5-4.5c2.4829999.0054995 4.4945005 2.0170001 4.5 4.5zm-8.9-4.77-2.1-2.92c-.212573-.2911715-.2536605-.6736313-.1077851-1.0033107.1458753-.3296794.4565516-.5564921.815-.595.3584484-.038508.7102121.1171392.9227851.4083107l2.17 3c-.6227832.2759668-1.1968558.6508024-1.7 1.11z"/><path id="Shape" d="m40 37h-2.35c.6996155-1.4667175.2943463-3.2222115-.9774102-4.2338228-1.2717565-1.0116112-3.0734231-1.0116112-4.3451796 0-1.2717565 1.0116113-1.6770257 2.7671053-.9774102 4.2338228h-2.35c-1.6568542-.1215026-3.0984974 1.1231458-3.22 2.78s1.1231458 3.0984974 2.78 3.22c-2.7860616 3.0584015-7.0525542 4.2949252-11.0422575 3.2002897-3.9897032-1.0946355-7.0278148-4.3352879-7.86304192-8.3872448-.8352271-4.0519569.67369722-8.2298867 3.90529942-10.8130449.1465403.0086119.2934597.0086119.44 0 1.0818511 0 2.1345191-.3508894 3-1l1.23 1.22c-.1823393.6851562.0116954 1.4156398.51 1.92l1.41 1.42c.3751365.3755541.8841815.5865733 1.415.5865733s1.0398635-.2110192 1.415-.5865733l.71-.71 2.07 2.15c.3751365.3755541.8841815.5865733 1.415.5865733s1.0398635-.2110192 1.415-.5865733l2.82-2.83c.3755541-.3751365.5865733-.8841815.5865733-1.415s-.2110192-1.0398635-.5865733-1.415l-2.12-2.12.71-.7c.3755541-.3751365.5865733-.8841815.5865733-1.415s-.2110192-1.0398635-.5865733-1.415l-1.41-1.42c-.5064386-.5018619-1.2417506-.6961671-1.93-.51l-14.34-14.36c-.3751365-.37555409-.8841815-.58657331-1.415-.58657331s-1.03986349.21101922-1.415.58657331l-2.82-2.81c-.37513651-.37555409-.8841815-.58657331-1.415-.58657331s-1.03986349.21101922-1.415.58657331l-2.84 2.82c-.37555409.37513651-.58657331.8841815-.58657331 1.415s.21101922 1.03986349.58657331 1.415l2.84 2.83c-.37555409.3751365-.58657331.8841815-.58657331 1.415s.21101922 1.0398635.58657331 1.415l6.16 6.15c-.56229295.7300361-.90872744 1.603051-1 2.52-4.41867899 3.9543016-6.60637801 9.8311509-5.84900602 15.7122743s4.36264166 11.0119533 9.63900602 13.7177257h-4.79c-3.3137085 0-6 2.6862915-6 6v2h-1c-.55228475 0-1 .4477153-1 1s.44771525 1 1 1h40c.5522847 0 1-.4477153 1-1s-.4477153-1-1-1h-1v-2c0-3.3137085-2.6862915-6-6-6h-4.79c3.4229335-1.7507137 6.1924789-4.5553166 7.9-8h2.89c1.6568542 0 3-1.3431458 3-3s-1.3431458-3-3-3zm-7-1.5c0-.8284271.6715729-1.5 1.5-1.5s1.5.6715729 1.5 1.5-.6715729 1.5-1.5 1.5-1.5-.6715729-1.5-1.5zm-19-16.5c1.6568542 0 3 1.3431458 3 3s-1.3431458 3-3 3-3-1.3431458-3-3 1.3431458-3 3-3zm16 8.75-2.83 2.83-2.12-2.12 2.83-2.83zm-1.41-5.66-7.08 7.07-1.41-1.41 7.07-7.07zm-26.17-16.26 2.83-2.83 2.83 2.83-2.83 2.83zm8.49 0 14.14 14.17-5.66 5.66-1.1-1.1c1.1157223-1.9571677.7847849-4.4187712-.808222-6.011778-1.5930068-1.5930069-4.0546103-1.9239443-6.011778-.808222l-6.22-6.25c9.27-9.26 3.75-3.78 5.66-5.66zm23.09 47.17c2.209139 0 4 1.790861 4 4v2h-34v-2c0-2.209139 1.790861-4 4-4zm-13-2c-6.3865548-.0115458-12.15452995-3.8200053-14.67373113-9.6887225-2.51920119-5.8687171-1.30704292-12.6734635 3.08373113-17.3112775.41625831.9450426 1.1149163 1.7380194 2 2.27-3.45507159 3.4706659-4.66652551 8.5885108-3.13401493 13.2397959 1.53251057 4.651285 5.54890703 8.046652 10.39036343 8.7837686 4.8414565.7371165 9.6863412-1.3091116 12.5336515-5.2935645h3.64c-2.8551921 4.9453446-8.1296129 7.9941428-13.84 8zm19-10h-11c-.5522847 0-1-.4477153-1-1s.4477153-1 1-1h11c.5522847 0 1 .4477153 1 1s-.4477153 1-1 1z"/></g></g></svg>