<?xml version="1.0" encoding="iso-8859-1"?>
<!-- Generator: Adobe Illustrator 19.0.0, SVG Export Plug-In . SVG Version: 6.00 Build 0)  -->
<svg version="1.1" id="Layer_1" xmlns="http://www.w3.org/2000/svg" xmlns:xlink="http://www.w3.org/1999/xlink" x="0px" y="0px"
	 viewBox="0 0 512 512" style="enable-background:new 0 0 512 512;" xml:space="preserve">
<g>
	<path style="fill:#B3404A;" d="M222.717,366.95c-5.752,0-11.078-3.24-13.692-8.463l-41.575-83.069l-23.142,35.614
		c-2.826,4.347-7.659,6.971-12.844,6.971H15.318C6.858,318.002,0,311.144,0,302.684s6.858-15.318,15.318-15.318h107.833
		l33.184-51.067c2.993-4.604,8.232-7.242,13.703-6.948c5.484,0.308,10.381,3.528,12.839,8.438l35.382,70.697l35.928-136.243
		c1.659-6.289,7.109-10.846,13.593-11.363c6.475-0.519,12.588,3.117,15.223,9.063l26.233,59.206l22.079-34.224
		c2.802-4.341,7.602-6.979,12.769-7.014c5.24-0.052,10.002,2.538,12.862,6.841l22.964,34.573h116.773
		c8.46,0,15.318,6.858,15.318,15.318s-6.858,15.318-15.318,15.318H371.695c-5.131,0-9.921-2.569-12.76-6.842l-14.562-21.924
		l-24.776,38.406c-3.051,4.73-8.457,7.408-14.065,6.968c-5.612-0.438-10.531-3.92-12.812-9.066l-20.043-45.236l-35.143,133.27
		c-1.625,6.162-6.896,10.675-13.234,11.33C223.769,366.922,223.242,366.95,222.717,366.95z"/>
	<path style="fill:#B3404A;" d="M247.875,478.107c-2.226,0-4.453-0.484-6.516-1.455c-73.068-34.345-146.415-97.757-191.42-165.49
		c-3.125-4.701-3.41-10.741-0.741-15.716c2.667-4.975,7.855-8.079,13.499-8.079h60.454l33.184-51.068
		c2.992-4.604,8.227-7.256,13.703-6.948c5.484,0.308,10.381,3.528,12.839,8.438l35.382,70.697l35.928-136.243
		c1.659-6.289,7.109-10.846,13.593-11.363c6.475-0.519,12.588,3.117,15.223,9.063l26.233,59.206l22.079-34.224
		c2.802-4.341,7.602-6.979,12.769-7.014c0.034,0,0.069,0,0.103,0c5.128,0,9.92,2.567,12.76,6.842l27.509,41.416
		c4.681,7.048,2.763,16.554-4.283,21.235c-7.049,4.68-16.555,2.762-21.235-4.283l-14.564-21.924l-24.775,38.406
		c-3.053,4.73-8.466,7.408-14.065,6.968c-5.612-0.438-10.531-3.92-12.812-9.067l-20.043-45.236l-35.143,133.27
		c-1.625,6.162-6.896,10.675-13.234,11.33c-6.349,0.651-12.423-2.682-15.275-8.38l-41.575-83.069l-23.142,35.614
		c-2.826,4.347-7.659,6.971-12.844,6.971H92.704c40.558,51.659,98.551,99.672,155.172,127.775
		c52.656-26.141,107.401-69.974,147.65-118.421c5.407-6.508,15.062-7.4,21.57-1.994c6.507,5.406,7.4,15.063,1.994,21.57
		C374.449,400.67,312.88,449.161,254.392,476.653C252.328,477.623,250.1,478.107,247.875,478.107z"/>
</g>
<path style="fill:#F4B2B0;" d="M169.179,244.646l53.544,106.986l46.275-175.482l37.727,85.149l37.461-58.069l27.51,41.416h91.694
	c3.762-10.019,6.72-20.013,8.743-29.903c2.085-10.218,3.215-20.38,3.215-30.324c0-74.655-59.694-135.207-133.342-135.207
	c-36.73,0-69.986,15.082-94.132,39.444c-24.145-24.363-57.401-39.444-94.132-39.444c-73.646,0-133.342,60.552-133.342,135.207
	c0,9.944,1.13,20.106,3.215,30.324c5.946,29.077,19.87,59.031,39.08,87.943h68.767L169.179,244.646z"/>
<path style="fill:#B3404A;" d="M222.717,366.95c-5.752,0-11.078-3.24-13.692-8.461l-41.575-83.069l-23.142,35.614
	c-2.826,4.347-7.659,6.971-12.844,6.971H62.697c-5.13,0-9.92-2.567-12.758-6.841c-21.318-32.081-35.221-63.49-41.329-93.35
	c-2.339-11.474-3.525-22.707-3.525-33.394c0-83,66.688-150.525,148.659-150.525c34.693,0,67.609,11.981,94.132,34.011
	c26.523-22.03,59.439-34.011,94.132-34.011c81.971,0,148.658,67.525,148.658,150.525c0,10.692-1.186,21.924-3.523,33.386
	c-2.134,10.434-5.3,21.275-9.411,32.225c-2.242,5.975-7.958,9.933-14.34,9.933h-91.695c-5.131,0-9.921-2.569-12.76-6.842
	l-14.563-21.924l-24.776,38.406c-3.051,4.73-8.457,7.408-14.065,6.968c-5.612-0.438-10.531-3.92-12.812-9.067l-20.043-45.236
	l-35.143,133.27c-1.625,6.162-6.896,10.675-13.234,11.33C223.769,366.922,223.241,366.95,222.717,366.95z M169.177,229.328
	c0.286,0,0.573,0.008,0.861,0.025c5.484,0.308,10.381,3.528,12.839,8.438l35.382,70.697l35.928-136.243
	c1.659-6.289,7.109-10.846,13.593-11.363c6.475-0.519,12.588,3.117,15.223,9.063l26.233,59.206l22.079-34.224
	c2.802-4.341,7.602-6.979,12.769-7.014c5.24-0.052,10.004,2.538,12.862,6.841l22.964,34.573h72.584
	c1.91-6.017,3.46-11.925,4.632-17.655c1.927-9.445,2.904-18.616,2.904-27.255c0-66.108-52.944-119.89-118.022-119.89
	c-31.375,0-60.943,12.398-83.251,34.909c-2.877,2.903-6.793,4.536-10.88,4.536s-8.003-1.633-10.88-4.536
	c-22.309-22.511-51.876-34.909-83.251-34.909c-65.079,0-118.024,53.782-118.024,119.89c0,8.636,0.977,17.808,2.906,27.264
	c4.889,23.909,15.78,49.343,32.398,75.686h52.126l33.184-51.068C159.17,231.937,164.012,229.328,169.177,229.328z"/>
<g>
</g>
<g>
</g>
<g>
</g>
<g>
</g>
<g>
</g>
<g>
</g>
<g>
</g>
<g>
</g>
<g>
</g>
<g>
</g>
<g>
</g>
<g>
</g>
<g>
</g>
<g>
</g>
<g>
</g>
</svg>
